<svg width="60" height="53" viewBox="0 0 60 53" fill="none" xmlns="http://www.w3.org/2000/svg">
<path d="M60 26.5059C60 22.57 55.0224 18.8399 47.391 16.5268C49.1521 8.82455 48.3693 2.69664 44.9205 0.734732C44.1256 0.274533 43.1961 0.0565439 42.181 0.0565439V2.75719C42.7436 2.75719 43.1961 2.86618 43.5752 3.07206C45.2385 4.01668 45.9601 7.6135 45.3975 12.2397C45.2629 13.3781 45.0428 14.577 44.7737 15.8002C42.3767 15.2189 39.7595 14.7708 37.0077 14.4802C35.3567 12.2397 33.6445 10.2052 31.9201 8.42491C35.9071 4.75542 39.6494 2.74508 42.1932 2.74508V0.0444336C38.83 0.0444336 34.4272 2.41809 29.9755 6.53567C25.5238 2.44232 21.1211 0.0928758 17.7578 0.0928758V2.79352C20.2894 2.79352 24.044 4.79175 28.031 8.43702C26.3188 10.2173 24.6066 12.2397 22.98 14.4802C20.2161 14.7708 17.5989 15.2189 15.2018 15.8123C14.9205 14.6013 14.7126 13.4265 14.5658 12.3003C13.991 7.67405 14.7004 4.07723 16.3514 3.1205C16.7183 2.90251 17.1953 2.80563 17.7578 2.80563V0.104986C16.7305 0.104986 15.8011 0.322975 14.9939 0.783175C11.5573 2.74508 10.7868 8.86088 12.5601 16.5389C4.95312 18.8642 0 22.5821 0 26.5059C0 30.4418 4.97758 34.1719 12.609 36.485C10.8479 44.1872 11.6307 50.3152 15.0795 52.2771C15.8744 52.7373 16.8039 52.9553 17.8312 52.9553C21.1945 52.9553 25.5972 50.5816 30.0489 46.464C34.5006 50.5574 38.9034 52.9068 42.2666 52.9068C43.2939 52.9068 44.2234 52.6888 45.0306 52.2286C48.4672 50.2667 49.2377 44.1509 47.4643 36.4728C55.0469 34.1597 60 30.4297 60 26.5059ZM44.0766 18.4282C43.6241 19.9904 43.0616 21.6011 42.4256 23.2118C41.9242 22.243 41.3983 21.2742 40.8235 20.3053C40.2609 19.3365 39.6616 18.3919 39.0624 17.4715C40.799 17.7258 42.4745 18.0407 44.0766 18.4282ZM38.4753 31.3259C37.5214 32.9608 36.543 34.5109 35.5279 35.9521C33.7057 36.1095 31.8589 36.1943 30 36.1943C28.1533 36.1943 26.3066 36.1095 24.4965 35.9642C23.4815 34.5231 22.4908 32.985 21.5369 31.3622C20.6074 29.7757 19.7636 28.165 18.9931 26.5422C19.7513 24.9194 20.6074 23.2966 21.5247 21.7101C22.4786 20.0752 23.457 18.5251 24.4721 17.0839C26.2943 16.9265 28.1411 16.8417 30 16.8417C31.8467 16.8417 33.6934 16.9265 35.5035 17.0718C36.5186 18.513 37.5092 20.051 38.4631 21.6738C39.3926 23.2603 40.2364 24.871 41.0069 26.4938C40.2364 28.1166 39.3926 29.7394 38.4753 31.3259ZM42.4256 29.7515C43.086 31.3743 43.6486 32.9971 44.1133 34.5715C42.5112 34.959 40.8235 35.286 39.0746 35.5403C39.6739 34.6078 40.2731 33.6511 40.8357 32.6701C41.3983 31.7013 41.9242 30.7204 42.4256 29.7515ZM30.0245 42.6734C28.8871 41.5108 27.7497 40.215 26.6245 38.7981C27.7252 38.8465 28.8504 38.8828 29.9878 38.8828C31.1374 38.8828 32.2748 38.8586 33.3877 38.7981C32.287 40.215 31.1496 41.5108 30.0245 42.6734ZM20.9254 35.5403C19.1887 35.286 17.5132 34.9711 15.9111 34.5836C16.3636 33.0214 16.9262 31.4107 17.5622 29.8C18.0636 30.7688 18.5895 31.7376 19.1643 32.7065C19.7391 33.6753 20.3261 34.6199 20.9254 35.5403ZM29.9633 10.3384C31.1007 11.501 32.2381 12.7968 33.3632 14.2137C32.2625 14.1653 31.1374 14.129 30 14.129C28.8504 14.129 27.713 14.1532 26.6001 14.2137C27.7008 12.7968 28.8382 11.501 29.9633 10.3384ZM20.9132 17.4715C20.3139 18.404 19.7146 19.3607 19.1521 20.3417C18.5895 21.3105 18.0636 22.2793 17.5622 23.2482C16.9018 21.6254 16.3392 20.0026 15.8744 18.4282C17.4766 18.0528 19.1643 17.7258 20.9132 17.4715ZM9.84509 32.6338C5.5157 30.8051 2.71504 28.4072 2.71504 26.5059C2.71504 24.6045 5.5157 22.1946 9.84509 20.378C10.8969 19.9299 12.0465 19.5302 13.2328 19.1548C13.9299 21.5285 14.8471 23.999 15.9845 26.5301C14.8594 29.0491 13.9543 31.5075 13.2695 33.8691C12.0587 33.4937 10.9091 33.0819 9.84509 32.6338ZM16.4248 49.9397C14.7615 48.9951 14.04 45.3983 14.6025 40.7721C14.7371 39.6337 14.9572 38.4347 15.2263 37.2116C17.6233 37.7929 20.2405 38.241 22.9923 38.5316C24.6433 40.7721 26.3555 42.8066 28.0799 44.5869C24.0929 48.2564 20.3506 50.2667 17.8068 50.2667C17.2564 50.2546 16.7917 50.1456 16.4248 49.9397ZM45.4342 40.7115C46.009 45.3377 45.2996 48.9346 43.6486 49.8913C43.2817 50.1093 42.8047 50.2062 42.2421 50.2062C39.7106 50.2062 35.956 48.2079 31.969 44.5627C33.6812 42.7824 35.3934 40.76 37.02 38.5195C39.7839 38.2289 42.4011 37.7808 44.7982 37.1874C45.0795 38.4105 45.2996 39.5852 45.4342 40.7115ZM50.1427 32.6338C49.0909 33.0819 47.9413 33.4816 46.755 33.857C46.0579 31.4833 45.1406 29.0128 44.0033 26.4817C45.1284 23.9627 46.0334 21.5043 46.7183 19.1427C47.9291 19.5181 49.0787 19.9299 50.1549 20.378C54.4843 22.2067 57.285 24.6045 57.285 26.5059C57.2727 28.4072 54.4721 30.8172 50.1427 32.6338Z" fill="#8E8E8E"/>
<path d="M29.9875 32.0402C33.0743 32.0402 35.5766 29.5623 35.5766 26.5057C35.5766 23.4491 33.0743 20.9712 29.9875 20.9712C26.9008 20.9712 24.3984 23.4491 24.3984 26.5057C24.3984 29.5623 26.9008 32.0402 29.9875 32.0402Z" fill="#8E8E8E"/>
</svg>
