<svg width="56" height="53" viewBox="0 0 56 53" fill="none" xmlns="http://www.w3.org/2000/svg">
<path d="M38.7933 36.8682C40.8582 36.6558 42.4248 34.8868 42.3535 32.7638C42.2825 30.641 40.5021 28.9426 38.366 28.9426H38.2237C36.016 29.0134 34.3072 30.8532 34.3784 33.0468C34.4497 34.1083 34.8768 35.0282 35.5177 35.6651C33.0967 40.4064 29.3939 43.8738 23.8398 46.7751C20.0659 48.7565 16.1496 49.4642 12.2333 48.969C9.02891 48.5443 6.53667 47.1292 4.9699 44.7937C2.69143 41.3263 2.47788 37.5757 4.4005 33.8253C5.7535 31.1362 7.88946 29.1548 9.24247 28.1641C8.95766 27.2442 8.53033 25.6874 8.31678 24.5553C-2.00824 31.9855 -0.940048 42.034 2.19307 46.7751C4.54279 50.3135 9.31372 52.5071 14.583 52.5071C16.0071 52.5071 17.4311 52.3655 18.8554 52.0119C27.9699 50.2427 34.877 44.8645 38.7933 36.8682ZM51.3257 28.0935C45.9139 21.7954 37.9389 18.328 28.8243 18.328H27.6851C27.0442 17.0543 25.6912 16.205 24.1959 16.205H24.0534C21.8462 16.2758 20.1373 18.1156 20.2084 20.3094C20.2796 22.4322 22.0597 24.1306 24.1959 24.1306H24.3382C25.9048 24.0598 27.2578 23.0691 27.8274 21.7246H29.1091C34.5209 21.7246 39.6477 23.2813 44.2763 26.3243C47.8366 28.6595 50.4001 31.7025 51.8241 35.3821C53.0346 38.3542 52.9633 41.2555 51.6816 43.7324C49.6879 47.4828 46.3413 49.535 41.9264 49.535C39.0781 49.535 36.3723 48.6857 34.948 48.0488C34.1649 48.7565 32.7406 49.8886 31.7437 50.5965C34.8057 52.0117 37.9389 52.7902 40.9295 52.7902C47.7653 52.7902 52.821 49.0396 54.7437 45.2892C56.8086 41.1847 56.6661 34.1083 51.3257 28.0935ZM15.1526 38.0709C15.2239 40.194 17.004 41.8922 19.1402 41.8922H19.2827C21.4901 41.8216 23.199 39.9815 23.1277 37.7879C23.0567 35.6649 21.2763 33.9667 19.1402 33.9667H18.9979C18.8554 33.9667 18.6416 33.9667 18.4995 34.0373C15.58 29.2254 14.3695 23.989 14.7968 18.3278C15.0814 14.0819 16.5056 10.4021 18.9979 7.35918C21.0628 4.74089 25.0503 3.46716 27.7563 3.39656C35.3041 3.25494 38.5083 12.5958 38.722 16.3464C39.6477 16.5586 41.2143 17.0541 42.2825 17.4079C41.4278 5.94425 34.3072 0 27.4715 0C21.0628 0 15.1526 4.5997 12.8027 11.393C9.52727 20.4508 11.6634 29.1548 15.651 36.0189C15.2951 36.5142 15.0814 37.2927 15.1526 38.0712V38.0709Z" fill="#8E8E8E"/>
</svg>
