<svg width="53" height="53" viewBox="0 0 53 53" fill="none" xmlns="http://www.w3.org/2000/svg">
<path fill-rule="evenodd" clip-rule="evenodd" d="M0 0V26.5V53H53V0H0ZM11.5702 28.5133V26.3536L11.61 24.1938L20.885 24.1541C25.9862 24.1541 30.1865 24.1673 30.1865 24.2071C30.2395 24.2336 30.2395 25.2008 30.2395 26.3933V28.5133H23.3495V48.1233H18.4602V28.5133H11.5702ZM45.848 26.0356C44.9205 25.0683 43.887 24.4588 42.5354 24.1408C41.6212 23.9023 39.4615 23.7963 38.534 23.9818C35.672 24.5118 33.6712 26.3668 33.1015 29.0168C32.916 29.7721 32.9822 31.6536 33.181 32.4221C33.446 33.3098 34.0157 34.3831 34.6385 35.0721C35.7249 36.2116 36.891 36.9536 39.6337 38.1196C42.0187 39.1796 42.8667 39.6566 43.2907 40.2396C43.5955 40.7033 43.6882 40.9816 43.6882 41.5911C43.6882 42.2536 43.4762 42.7306 42.986 43.1811C41.8465 44.2146 39.541 44.3338 37.8185 43.4461C37.2487 43.1281 36.2682 42.2006 35.8309 41.5116L35.4865 41.0478L33.9892 41.9223L32.0017 43.0751L31.4982 43.3931C31.4452 43.4858 32.386 44.9036 32.8762 45.4336C34.1217 46.7983 36.149 47.8583 38.269 48.2558C39.2627 48.4281 41.3827 48.4546 42.3102 48.2956C45.265 47.8053 47.332 46.3081 48.18 44.0953C48.9352 42.0681 48.6834 39.3651 47.5572 37.6426C46.5634 36.1056 44.9205 35.0323 41.131 33.4026C39.0772 32.5016 38.4147 32.0643 38.057 31.3356C37.898 30.9911 37.8185 30.7526 37.8185 30.3286C37.8185 28.9373 38.8784 28.1026 40.4684 28.2086C41.5682 28.2881 42.2705 28.7121 42.9595 29.6926C43.1715 30.0371 43.3835 30.2623 43.4365 30.2226C44.8277 29.3613 47.1199 27.8111 47.1199 27.7316C47.0669 27.4931 46.3382 26.5656 45.848 26.0356Z" fill="#8E8E8E"/>
</svg>
